<svg xmlns="http://www.w3.org/2000/svg" viewBox="0 0 1200 650"><rect width="1200" height="650" fill="#030504"/><g font-family="Arial" fill="#39ff88"><text x="70" y="100" font-size="64" font-weight="900">DJ FLY // SYSTEM</text><text x="70" y="145" font-size="20" letter-spacing="7" fill="#b8ffd5">SIGNAL / GROOVE / ENERGY / CROWD</text></g><g fill="#07130c" stroke="#39ff88" stroke-width="3"><rect x="70" y="210" width="250" height="260" rx="16"/><rect x="350" y="210" width="250" height="260" rx="16"/><rect x="630" y="210" width="250" height="260" rx="16"/><rect x="910" y="210" width="220" height="260" rx="16"/></g><g fill="#39ff88" font-family="Arial" text-anchor="middle"><text x="195" y="270" font-size="24">BPM</text><text x="195" y="390" font-size="86" font-weight="900">128</text><text x="475" y="270" font-size="24">ENERGY</text><text x="475" y="390" font-size="86" font-weight="900">94%</text><text x="755" y="270" font-size="24">GROOVE</text><text x="755" y="390" font-size="86" font-weight="900">0.87</text><text x="1020" y="270" font-size="24">CROWD</text><text x="1020" y="390" font-size="70" font-weight="900">∞</text></g><path d="M70 535H1130" stroke="#39ff88" stroke-width="5"/><path d="M80 570h80m30 0h160m30 0h90m30 0h230m30 0h170" stroke="#39ff88" stroke-width="10"/></svg>